<svg id="visual" viewBox="0 0 1920 1080" width="1920" height="1080" xmlns="http://www.w3.org/2000/svg" xmlns:xlink="http://www.w3.org/1999/xlink" version="1.1"><rect x="0" y="0" width="1920" height="1080" fill="#15212b"></rect><defs><linearGradient id="grad1_0" x1="43.8%" y1="0%" x2="100%" y2="100%"><stop offset="14.444444444444446%" stop-color="#15212b" stop-opacity="1"></stop><stop offset="85.55555555555554%" stop-color="#15212b" stop-opacity="1"></stop></linearGradient></defs><defs><linearGradient id="grad2_0" x1="0%" y1="0%" x2="56.3%" y2="100%"><stop offset="14.444444444444446%" stop-color="#15212b" stop-opacity="1"></stop><stop offset="85.55555555555554%" stop-color="#15212b" stop-opacity="1"></stop></linearGradient></defs><g transform="translate(1920, 0)"><path d="M0 972C-128.4 960.6 -256.7 949.3 -372 898C-487.2 846.7 -589.4 755.6 -653.4 653.4C-717.4 551.2 -743.2 437.9 -789.9 327.2C-836.7 216.5 -904.3 108.2 -972 0L0 0Z" fill="#FBAE3C"></path></g><g transform="translate(0, 1080)"><path d="M0 -972C141.5 -973.7 283 -975.4 372 -898C460.9 -820.6 497.2 -664 562.1 -562.1C627.1 -460.3 720.5 -413.3 793.6 -328.7C866.7 -244.2 919.3 -122.1 972 0L0 0Z" fill="#FBAE3C"></path></g></svg>