<svg id="visual" viewBox="0 0 1920 1080" width="1920" height="1080" xmlns="http://www.w3.org/2000/svg" xmlns:xlink="http://www.w3.org/1999/xlink" version="1.1"><rect x="0" y="0" width="1920" height="1080" fill="#c5e3fa"></rect><defs><linearGradient id="grad1_0" x1="43.8%" y1="0%" x2="100%" y2="100%"><stop offset="14.444444444444446%" stop-color="#c5e3fa" stop-opacity="1"></stop><stop offset="85.55555555555554%" stop-color="#c5e3fa" stop-opacity="1"></stop></linearGradient></defs><defs><linearGradient id="grad2_0" x1="0%" y1="0%" x2="56.3%" y2="100%"><stop offset="14.444444444444446%" stop-color="#c5e3fa" stop-opacity="1"></stop><stop offset="85.55555555555554%" stop-color="#c5e3fa" stop-opacity="1"></stop></linearGradient></defs><g transform="translate(1920, 0)"><path d="M0 918C-101.2 858.6 -202.4 799.1 -316.1 763.1C-429.8 727.1 -556 714.5 -649.1 649.1C-742.3 583.7 -802.4 465.6 -841.7 348.6C-881 231.6 -899.5 115.8 -918 0L0 0Z" fill="#FBAE3C"></path></g><g transform="translate(0, 1080)"><path d="M0 -918C94.6 -821.3 189.1 -724.7 275.9 -666.1C362.7 -607.5 441.8 -587 546.6 -546.6C651.4 -506.1 781.9 -445.7 848.1 -351.3C914.3 -256.9 916.2 -128.4 918 0L0 0Z" fill="#FBAE3C"></path></g></svg>