<svg id="visual" viewBox="0 0 1920 1080" width="1920" height="1080" xmlns="http://www.w3.org/2000/svg" xmlns:xlink="http://www.w3.org/1999/xlink" version="1.1"><path d="M0 120L35.5 127.2C71 134.3 142 148.7 213.2 148.7C284.3 148.7 355.7 134.3 426.8 127.2C498 120 569 120 640 121.8C711 123.7 782 127.3 853.2 127.3C924.3 127.3 995.7 123.7 1066.8 127.2C1138 130.7 1209 141.3 1280 137.7C1351 134 1422 116 1493.2 107C1564.3 98 1635.7 98 1706.8 101.7C1778 105.3 1849 112.7 1884.5 116.3L1920 120L1920 0L1884.5 0C1849 0 1778 0 1706.8 0C1635.7 0 1564.3 0 1493.2 0C1422 0 1351 0 1280 0C1209 0 1138 0 1066.8 0C995.7 0 924.3 0 853.2 0C782 0 711 0 640 0C569 0 498 0 426.8 0C355.7 0 284.3 0 213.2 0C142 0 71 0 35.5 0L0 0Z" fill="#6198ff"></path><path d="M0 411L35.5 411C71 411 142 411 213.2 427.3C284.3 443.7 355.7 476.3 426.8 490.8C498 505.3 569 501.7 640 490.8C711 480 782 462 853.2 458.3C924.3 454.7 995.7 465.3 1066.8 472.5C1138 479.7 1209 483.3 1280 479.8C1351 476.3 1422 465.7 1493.2 462C1564.3 458.3 1635.7 461.7 1706.8 467C1778 472.3 1849 479.7 1884.5 483.3L1920 487L1920 118L1884.5 114.3C1849 110.7 1778 103.3 1706.8 99.7C1635.7 96 1564.3 96 1493.2 105C1422 114 1351 132 1280 135.7C1209 139.3 1138 128.7 1066.8 125.2C995.7 121.7 924.3 125.3 853.2 125.3C782 125.3 711 121.7 640 119.8C569 118 498 118 426.8 125.2C355.7 132.3 284.3 146.7 213.2 146.7C142 146.7 71 132.3 35.5 125.2L0 118Z" fill="#3c80ff"></path><path d="M0 595L35.5 587.8C71 580.7 142 566.3 213.2 582.5C284.3 598.7 355.7 645.3 426.8 677.7C498 710 569 728 640 726.2C711 724.3 782 702.7 853.2 700.8C924.3 699 995.7 717 1066.8 713.5C1138 710 1209 685 1280 661.7C1351 638.3 1422 616.7 1493.2 609.5C1564.3 602.3 1635.7 609.7 1706.8 618.7C1778 627.7 1849 638.3 1884.5 643.7L1920 649L1920 485L1884.5 481.3C1849 477.7 1778 470.3 1706.8 465C1635.7 459.7 1564.3 456.3 1493.2 460C1422 463.7 1351 474.3 1280 477.8C1209 481.3 1138 477.7 1066.8 470.5C995.7 463.3 924.3 452.7 853.2 456.3C782 460 711 478 640 488.8C569 499.7 498 503.3 426.8 488.8C355.7 474.3 284.3 441.7 213.2 425.3C142 409 71 409 35.5 409L0 409Z" fill="#0066ff"></path><path d="M0 962L35.5 956.7C71 951.3 142 940.7 213.2 938.8C284.3 937 355.7 944 426.8 951.2C498 958.3 569 965.7 640 964C711 962.3 782 951.7 853.2 949.8C924.3 948 995.7 955 1066.8 958.5C1138 962 1209 962 1280 953C1351 944 1422 926 1493.2 913.5C1564.3 901 1635.7 894 1706.8 890.5C1778 887 1849 887 1884.5 887L1920 887L1920 647L1884.5 641.7C1849 636.3 1778 625.7 1706.8 616.7C1635.7 607.7 1564.3 600.3 1493.2 607.5C1422 614.7 1351 636.3 1280 659.7C1209 683 1138 708 1066.8 711.5C995.7 715 924.3 697 853.2 698.8C782 700.7 711 722.3 640 724.2C569 726 498 708 426.8 675.7C355.7 643.3 284.3 596.7 213.2 580.5C142 564.3 71 578.7 35.5 585.8L0 593Z" fill="#0059dd"></path><path d="M0 1081L35.5 1081C71 1081 142 1081 213.2 1081C284.3 1081 355.7 1081 426.8 1081C498 1081 569 1081 640 1081C711 1081 782 1081 853.2 1081C924.3 1081 995.7 1081 1066.8 1081C1138 1081 1209 1081 1280 1081C1351 1081 1422 1081 1493.2 1081C1564.3 1081 1635.7 1081 1706.8 1081C1778 1081 1849 1081 1884.5 1081L1920 1081L1920 885L1884.5 885C1849 885 1778 885 1706.8 888.5C1635.7 892 1564.3 899 1493.2 911.5C1422 924 1351 942 1280 951C1209 960 1138 960 1066.8 956.5C995.7 953 924.3 946 853.2 947.8C782 949.7 711 960.3 640 962C569 963.7 498 956.3 426.8 949.2C355.7 942 284.3 935 213.2 936.8C142 938.7 71 949.3 35.5 954.7L0 960Z" fill="#004cbb"></path></svg>